<svg width="38" height="27" viewBox="0 0 38 27" fill="none" xmlns="http://www.w3.org/2000/svg">
<path d="M3.45455 0C2.53834 0 1.65967 0.355579 1.01181 0.988514C0.36396 1.62145 0 2.47989 0 3.375V21.9375H3.45455C3.45455 23.2802 4.00049 24.5678 4.97227 25.5172C5.94404 26.4666 7.26206 27 8.63636 27C10.0107 27 11.3287 26.4666 12.3005 25.5172C13.2722 24.5678 13.8182 23.2802 13.8182 21.9375H24.1818C24.1818 23.2802 24.7278 24.5678 25.6995 25.5172C26.6713 26.4666 27.9893 27 29.3636 27C30.7379 27 32.056 26.4666 33.0277 25.5172C33.9995 24.5678 34.5455 23.2802 34.5455 21.9375H38V13.5L32.8182 6.75H27.6364V0H3.45455ZM15.5455 3.375L22.4545 10.125L15.5455 16.875V11.8125H5.18182V8.4375H15.5455V3.375ZM27.6364 9.28125H31.9545L35.3573 13.5H27.6364V9.28125ZM8.63636 19.4062C9.32352 19.4062 9.98252 19.6729 10.4684 20.1476C10.9543 20.6223 11.2273 21.2662 11.2273 21.9375C11.2273 22.6088 10.9543 23.2527 10.4684 23.7274C9.98252 24.2021 9.32352 24.4688 8.63636 24.4688C7.94921 24.4688 7.2902 24.2021 6.80431 23.7274C6.31842 23.2527 6.04545 22.6088 6.04545 21.9375C6.04545 21.2662 6.31842 20.6223 6.80431 20.1476C7.2902 19.6729 7.94921 19.4062 8.63636 19.4062ZM29.3636 19.4062C30.0508 19.4062 30.7098 19.6729 31.1957 20.1476C31.6816 20.6223 31.9545 21.2662 31.9545 21.9375C31.9545 22.6088 31.6816 23.2527 31.1957 23.7274C30.7098 24.2021 30.0508 24.4688 29.3636 24.4688C28.6765 24.4688 28.0175 24.2021 27.5316 23.7274C27.0457 23.2527 26.7727 22.6088 26.7727 21.9375C26.7727 21.2662 27.0457 20.6223 27.5316 20.1476C28.0175 19.6729 28.6765 19.4062 29.3636 19.4062Z" fill="white"/>
</svg>
