<svg width="26" height="18" viewBox="0 0 26 18" fill="none" xmlns="http://www.w3.org/2000/svg">
<g id="Group 3967">
<path id="Ellipse 54" d="M14 4.5C14 6.98528 11.9853 9 9.5 9C7.01472 9 5 6.98528 5 4.5C5 2.01472 7.01472 0 9.5 0C11.9853 0 14 2.01472 14 4.5ZM7.06652 4.5C7.06652 5.84397 8.15603 6.93348 9.5 6.93348C10.844 6.93348 11.9335 5.84397 11.9335 4.5C11.9335 3.15603 10.844 2.06652 9.5 2.06652C8.15603 2.06652 7.06652 3.15603 7.06652 4.5Z" fill="#33394F"/>
<path id="Ellipse 55" d="M21 13.5C21 15.9853 18.9853 18 16.5 18C14.0147 18 12 15.9853 12 13.5C12 11.0147 14.0147 9 16.5 9C18.9853 9 21 11.0147 21 13.5ZM14.0665 13.5C14.0665 14.844 15.156 15.9335 16.5 15.9335C17.844 15.9335 18.9335 14.844 18.9335 13.5C18.9335 12.156 17.844 11.0665 16.5 11.0665C15.156 11.0665 14.0665 12.156 14.0665 13.5Z" fill="#33394F"/>
<rect id="Rectangle 156" x="13" y="3" width="13" height="3" fill="#33394F"/>
<rect id="Rectangle 158" x="20" y="12" width="6" height="3" fill="#33394F"/>
<rect id="Rectangle 157" y="3" width="6" height="3" fill="#33394F"/>
<rect id="Rectangle 159" y="12" width="13" height="3" fill="#33394F"/>
</g>
</svg>
