<?xml version="1.0" encoding="utf-8"?><svg viewBox="0 0 36 30" xmlns="http://www.w3.org/2000/svg" xmlns:xlink="http://www.w3.org/1999/xlink"><style>:root>svg{display:none}:root>svg:target{display:block}</style><svg viewBox="0 0 16 9" id="arrow-btn" xmlns="http://www.w3.org/2000/svg"><path d="M7.293 8.707a1 1 0 001.414 0l6.364-6.364A1 1 0 0013.657.93L8 6.586 2.343.929A1 1 0 00.93 2.343l6.364 6.364zM7 7v1h2V7H7z"/></svg><svg viewBox="0 0 36 30" id="basket" xmlns="http://www.w3.org/2000/svg"><path d="M33.84 0H2.16C1.587 0 1.038.226.633.628A2.134 2.134 0 000 2.143v25.714c0 .569.228 1.114.633 1.515.405.402.954.628 1.527.628h31.68a2.17 2.17 0 001.527-.628c.405-.401.633-.947.633-1.515V2.143c0-.568-.228-1.114-.633-1.515A2.169 2.169 0 0033.84 0zm.72 27.857c0 .19-.076.371-.21.505a.723.723 0 01-.51.21H2.16a.723.723 0 01-.51-.21.711.711 0 01-.21-.505V2.143c0-.19.076-.371.21-.505a.723.723 0 01.51-.21h31.68c.191 0 .374.076.51.21.134.134.21.315.21.505v25.714zm-8.64-20a7.826 7.826 0 01-2.32 5.556 7.952 7.952 0 01-5.6 2.301c-2.1 0-4.115-.828-5.6-2.301a7.826 7.826 0 01-2.32-5.556c0-.19.076-.371.21-.505a.723.723 0 011.23.505c0 1.705.683 3.34 1.898 4.546A6.507 6.507 0 0018 14.286a6.507 6.507 0 004.582-1.883 6.403 6.403 0 001.898-4.546c0-.19.076-.371.21-.505a.723.723 0 011.23.505z"/></svg><svg viewBox="0 0 576 512" id="basket-shopping-solid" xmlns="http://www.w3.org/2000/svg"><!--!Font Awesome Free 6.5.1 by @fontawesome - https://fontawesome.com License - https://fontawesome.com/license/free Copyright 2024 Fonticons, Inc.--><path d="M253.3 35.1c6.1-11.8 1.5-26.3-10.2-32.4s-26.3-1.5-32.4 10.2L117.6 192H32c-17.7 0-32 14.3-32 32s14.3 32 32 32l51.9 207.5C91 492 116.6 512 146 512h284c29.4 0 55-20 62.1-48.5L544 256c17.7 0 32-14.3 32-32s-14.3-32-32-32h-85.6L365.3 12.9c-6.1-11.7-20.6-16.3-32.4-10.2s-16.3 20.6-10.2 32.4L404.3 192H171.7l81.6-156.9zM192 304v96c0 8.8-7.2 16-16 16s-16-7.2-16-16v-96c0-8.8 7.2-16 16-16s16 7.2 16 16zm96-16c8.8 0 16 7.2 16 16v96c0 8.8-7.2 16-16 16s-16-7.2-16-16v-96c0-8.8 7.2-16 16-16zm128 16v96c0 8.8-7.2 16-16 16s-16-7.2-16-16v-96c0-8.8 7.2-16 16-16s16 7.2 16 16z"/></svg><svg viewBox="0 0 21 16" id="car" xmlns="http://www.w3.org/2000/svg"><path d="M20.578 7.297L15.75 4.013V1.775c.027-.448-.16-.887-.516-1.22C14.88.224 14.38.024 13.852 0H1.882C1.356.027.864.23.513.562.16.894-.023 1.33.004 1.775v8.878c-.012.352.101.7.328.996.223.298.547.532.93.673-.192.4-.27.833-.219 1.264.05.43.223.843.5 1.204.281.362.66.66 1.11.87.445.208.945.323 1.456.332.512.01 1.02-.087 1.477-.28a3.053 3.053 0 001.148-.828c.297-.35.493-.757.563-1.185a2.26 2.26 0 00-.156-1.27h6.68c-.176.402-.231.833-.165 1.257.067.424.254.829.543 1.18.293.35.676.636 1.125.833.45.198.95.301 1.457.301.504 0 1.004-.103 1.453-.3.45-.198.832-.484 1.125-.835.29-.35.477-.755.543-1.179a2.252 2.252 0 00-.164-1.258h.211c.281 0 .547-.093.742-.26a.818.818 0 00.309-.627V7.99a.775.775 0 00-.117-.388.91.91 0 00-.305-.305zm-1.68 1.119v2.237H15.75V6.285l3.148 2.13zm-13.648 4.9a.782.782 0 01-.176.493c-.113.146-.277.26-.469.327a1.243 1.243 0 01-.609.05 1.105 1.105 0 01-.535-.242.84.84 0 01-.29-.455.778.778 0 01.06-.513.959.959 0 01.386-.398c.176-.098.38-.15.586-.15.277 0 .543.094.742.26a.827.827 0 01.305.628zm12.602 0a.786.786 0 01-.18.493c-.113.146-.277.26-.469.327a1.235 1.235 0 01-.61.05 1.105 1.105 0 01-.534-.242.864.864 0 01-.29-.455.756.756 0 01.063-.513.914.914 0 01.387-.398c.172-.098.375-.15.582-.15.277 0 .547.094.742.26a.831.831 0 01.309.628z"/></svg><svg viewBox="0 0 9 12" id="cart" xmlns="http://www.w3.org/2000/svg"><path d="M.645 10.667C.645 11.4 1.223 12 1.93 12h5.14c.707 0 1.285-.6 1.285-1.333v-8H.645v8zM9 .667H6.75L6.105 0h-3.21L2.25.667H0V2h9V.667z"/></svg><svg viewBox="0 0 11 14" id="download" xmlns="http://www.w3.org/2000/svg"><path d="M6.684 0H1.832C1.348 0 .879.184.535.513A1.71 1.71 0 000 1.75v10.5c0 .464.191.91.535 1.237.344.329.813.513 1.297.513h7.336c.484 0 .953-.184 1.297-.513.344-.328.535-.773.535-1.237V4.119a.857.857 0 00-.27-.619L7.332.256A.935.935 0 006.684 0zm.191 3.063v-1.75l2.75 2.625H7.793a.934.934 0 01-.648-.257.856.856 0 01-.27-.619zm-.918 3.5V9.88l1.05-1.003a.47.47 0 01.65 0 .431.431 0 01.136.31c0 .116-.05.227-.137.31l-1.832 1.75a.473.473 0 01-.648 0l-1.832-1.75a.431.431 0 01-.137-.31c0-.117.05-.228.137-.31a.47.47 0 01.648 0L5.043 9.88V6.562c0-.116.047-.227.133-.309a.47.47 0 01.648 0 .426.426 0 01.133.31z"/></svg><svg viewBox="0 0 34 30" id="heart" xmlns="http://www.w3.org/2000/svg"><path d="M11 1l5.5 4 .5.5 3.5-3 4-1.5 4 .5L31 4l2 4c.4.8.167 3 0 4l-3 4.5c-2.167 2.167-6.5 6.6-6.5 7 0 .4-4.333 3.833-6.5 5.5l-5-4-8.5-8-2-4.5L.5 9l1-4 4-3.5L11 1z"/><path d="M17 30l-.6-.505C3.5 18.889 0 15.15 0 9.09 0 4.04 4 0 9 0c4.1 0 6.4 2.323 8 4.141C18.6 2.323 20.9 0 25 0c5 0 9 4.04 9 9.09 0 6.062-3.5 9.799-16.4 20.405L17 30zM9 2.02c-3.9 0-7 3.132-7 7.07 0 5.152 3.2 8.587 15 18.284C28.8 17.677 32 14.242 32 9.09c0-3.94-3.1-7.07-7-7.07-3.5 0-5.4 2.12-6.9 3.838L17 7.172l-1.1-1.313C14.4 4.14 12.5 2.02 9 2.02z"/></svg><svg viewBox="0 0 18 16" id="large-list" xmlns="http://www.w3.org/2000/svg"><rect width="4" height="4" rx="1"/><rect y="6" width="4" height="4" rx="1"/><rect y="12" width="4" height="4" rx="1"/><rect x="6" y="6" width="12" height="4" rx="1"/><rect x="6" y="12" width="12" height="4" rx="1"/><rect x="6" width="12" height="4" rx="1"/></svg><svg viewBox="0 0 16 16" id="phone" xmlns="http://www.w3.org/2000/svg"><path d="M10.667 11.371l1.378-1.378a1.347 1.347 0 011.44-.296l1.679.671a1.341 1.341 0 01.836 1.23v3.077a1.335 1.335 0 01-1.402 1.323C2.83 15.266.458 5.298.008 1.483A1.336 1.336 0 011.343 0h2.97a1.328 1.328 0 011.23.837l.671 1.68a1.33 1.33 0 01-.289 1.44L4.547 5.335s.794 5.372 6.12 6.036z"/></svg><svg viewBox="0 0 24 25" id="search" xmlns="http://www.w3.org/2000/svg"><path d="M8.803 0c1.695 0 3.354.48 4.778 1.382A8.684 8.684 0 0116.83 5.09c.697 1.517.931 3.2.677 4.845a8.569 8.569 0 01-2.112 4.428L24 23.953 22.806 25l-8.585-9.548a8.877 8.877 0 01-3.777 1.682 8.957 8.957 0 01-4.141-.203 8.84 8.84 0 01-3.587-2.042A8.622 8.622 0 01.48 11.461 8.488 8.488 0 01.09 7.41 8.55 8.55 0 011.637 3.63 8.755 8.755 0 014.773.968 8.932 8.932 0 018.803.01V0zm0 15.704c1.91 0 3.74-.745 5.09-2.07a7.002 7.002 0 002.109-4.997 7.001 7.001 0 00-2.109-4.997 7.267 7.267 0 00-5.09-2.07c-1.91 0-3.74.745-5.09 2.07a7.002 7.002 0 00-2.109 4.997c0 1.874.759 3.671 2.109 4.997a7.267 7.267 0 005.09 2.07z" fill-opacity=".58"/></svg><svg viewBox="0 0 16 17" id="share" xmlns="http://www.w3.org/2000/svg"><path d="M13.332 11.796c-.633 0-1.215.217-1.676.579l-4.601-3.25a3.531 3.531 0 000-1.25l4.601-3.25a2.704 2.704 0 001.676.58C14.805 5.204 16 4.036 16 2.601 16 1.167 14.805 0 13.332 0c-1.469 0-2.664 1.167-2.664 2.602 0 .252.035.492.102.722l-4.372 3.09a3.583 3.583 0 00-2.843-1.383C1.59 5.03 0 6.583 0 8.5c0 1.917 1.59 3.47 3.555 3.47a3.583 3.583 0 002.843-1.384l4.372 3.09c-.067.23-.102.473-.102.722 0 1.435 1.195 2.602 2.664 2.602C14.805 17 16 15.833 16 14.398c0-1.435-1.195-2.602-2.668-2.602zm0-10.322c.64 0 1.156.506 1.156 1.128 0 .622-.515 1.128-1.156 1.128a1.14 1.14 0 01-1.152-1.128 1.14 1.14 0 011.152-1.128zm-9.777 8.934c-1.078 0-1.953-.856-1.953-1.908s.875-1.908 1.953-1.908 1.957.856 1.957 1.908-.88 1.908-1.957 1.908zm9.777 5.117a1.14 1.14 0 01-1.152-1.127 1.14 1.14 0 011.152-1.128c.64 0 1.156.506 1.156 1.128 0 .622-.515 1.127-1.156 1.127z"/></svg><svg viewBox="0 0 18 16" id="small-list" xmlns="http://www.w3.org/2000/svg"><rect width="3.176" height="3.2" rx="1"/><rect x="5.294" width="12.706" height="3.2" rx="1"/><rect y="12.8" width="3.176" height="3.2" rx="1"/><rect x="5.294" y="12.8" width="12.706" height="3.2" rx="1"/><rect y="8.533" width="3.176" height="3.2" rx="1"/><rect x="5.294" y="8.533" width="12.706" height="3.2" rx="1"/><rect y="4.267" width="3.176" height="3.2" rx="1"/><rect x="5.294" y="4.267" width="12.706" height="3.2" rx="1"/></svg><svg viewBox="0 0 16 16" id="tile" xmlns="http://www.w3.org/2000/svg"><rect width="4" height="4" rx="1"/><rect y="6" width="4" height="4" rx="1"/><rect y="12" width="4" height="4" rx="1"/><rect x="6" y="6" width="4" height="4" rx="1"/><rect x="6" y="12" width="4" height="4" rx="1"/><rect x="12" y="6" width="4" height="4" rx="1"/><rect x="12" y="12" width="4" height="4" rx="1"/><rect x="6" width="4" height="4" rx="1"/><rect x="12" width="4" height="4" rx="1"/></svg><svg viewBox="0 0 7 6" id="triangle" xmlns="http://www.w3.org/2000/svg"><path d="M3.5 6L.469.75H6.53L3.5 6z"/></svg><svg viewBox="0 0 29 29" id="user" xmlns="http://www.w3.org/2000/svg"><path d="M29 14.486C29 6.489 22.504 0 14.5 0S0 6.489 0 14.486c0 4.404 2.001 8.373 5.133 11.038.029.029.058.029.058.058.261.203.522.406.812.609.145.087.261.2.406.317A14.464 14.464 0 0014.529 29c2.895 0 5.724-.867 8.12-2.492.145-.087.261-.201.406-.29.261-.201.551-.404.812-.607.029-.03.058-.03.058-.058C26.999 22.857 29 18.89 29 14.485zM14.5 27.175c-2.726 0-5.22-.87-7.279-2.318.029-.232.087-.463.145-.695a7.557 7.557 0 01.754-1.796 6.377 6.377 0 011.16-1.479c.435-.435.957-.839 1.479-1.158a7.319 7.319 0 011.769-.725 7.521 7.521 0 011.972-.26 7.585 7.585 0 015.307 2.114 7.262 7.262 0 011.566 2.347c.203.522.348 1.073.435 1.652a12.741 12.741 0 01-7.308 2.318zm-4.437-13.413a4.513 4.513 0 01-.377-1.856c0-.636.116-1.274.377-1.854.261-.58.609-1.1 1.044-1.535a5.142 5.142 0 011.537-1.042 4.523 4.523 0 011.856-.377c.667 0 1.276.116 1.856.377.58.26 1.102.609 1.537 1.042.435.435.783.957 1.044 1.535a4.52 4.52 0 01.377 1.854c0 .667-.116 1.276-.377 1.854a5.147 5.147 0 01-1.044 1.537c-.445.438-.966.791-1.537 1.043a4.92 4.92 0 01-3.741 0 5.148 5.148 0 01-1.537-1.043 4.578 4.578 0 01-1.015-1.537v.002zm13.456 9.617c0-.058-.029-.087-.029-.145a9.46 9.46 0 00-1.247-2.548 8.85 8.85 0 00-1.972-2.057 9.43 9.43 0 00-1.885-1.102c.304-.2.586-.434.841-.694a7.61 7.61 0 001.131-1.421 6.568 6.568 0 00.957-3.506 6.724 6.724 0 00-.522-2.664 6.886 6.886 0 00-1.479-2.173 6.97 6.97 0 00-2.175-1.45 6.743 6.743 0 00-2.668-.52 6.743 6.743 0 00-2.668.522 6.581 6.581 0 00-2.175 1.477 6.96 6.96 0 00-1.45 2.173 6.724 6.724 0 00-.522 2.664c0 .638.087 1.247.261 1.825.174.61.406 1.16.725 1.68.29.523.696.987 1.131 1.422.261.26.551.49.87.694-.67.3-1.304.68-1.885 1.13a10.046 10.046 0 00-1.972 2.03 9.061 9.061 0 00-1.247 2.547c-.029.058-.029.116-.029.145-2.291-2.318-3.712-5.446-3.712-8.923 0-6.981 5.713-12.689 12.702-12.689s12.702 5.708 12.702 12.69a12.615 12.615 0 01-3.683 8.893z"/></svg></svg>