<svg width="122" height="29" viewBox="0 0 122 29" fill="none" xmlns="http://www.w3.org/2000/svg">
<path d="M46.395 4.02675H48.7192C48.7192 4.21901 48.7192 4.38103 48.7192 4.54304C48.7192 6.05464 48.7193 7.56623 48.7196 9.07782C48.7196 9.25918 48.7164 9.44097 48.7267 9.62183C48.8331 11.5003 50.005 12.4279 51.7982 12.0554C52.9317 11.82 53.7109 10.928 53.7784 9.60833C53.8563 8.08579 53.8347 6.55779 53.8545 5.03213C53.8587 4.70418 53.8551 4.37612 53.8551 4.02317H56.1528C56.1652 4.179 56.1848 4.31041 56.1848 4.44182C56.1862 7.38942 56.208 10.3373 56.1766 13.2845C56.1571 15.1071 55.5353 16.6706 53.9871 17.6818C52.5179 18.6415 50.9096 18.6394 49.2791 18.2256C48.2323 17.9599 47.1497 17.3326 46.5863 16.6913C46.9777 16.2564 47.3606 15.8045 47.7785 15.3904C47.8552 15.3144 48.1028 15.3382 48.2231 15.4067C48.9895 15.8434 49.7936 16.158 50.6717 16.1984C51.1233 16.229 51.5768 16.2005 52.0215 16.1135C53.2559 15.8402 53.9447 14.7364 53.7635 13.3164C53.6285 13.4275 53.5219 13.5152 53.4153 13.603C51.7364 14.9845 48.8506 14.7069 47.4702 13.0192C46.6782 12.0508 46.3809 10.885 46.3569 9.65356C46.3221 7.87061 46.3445 6.08646 46.3456 4.30282C46.3541 4.20948 46.3707 4.1171 46.395 4.02675Z" fill="#32394D"/>
<path d="M23.1254 0.573546C23.4217 0.573546 23.6821 0.573506 23.9424 0.573551C25.3469 0.573795 26.7515 0.562214 28.1558 0.576948C30.5971 0.60257 32.7432 2.56409 32.986 4.97362C33.2498 7.59156 31.6682 9.98087 29.2015 10.4937C28.2265 10.6964 27.1943 10.6124 26.1876 10.6433C25.5938 10.6615 25.5924 10.6477 25.5917 11.2608C25.5908 12.1973 25.5824 13.134 25.5963 14.0703C25.601 14.3829 25.5019 14.4942 25.1929 14.4851C24.51 14.4651 23.8262 14.4789 23.1254 14.4789L23.1254 0.573546ZM25.5914 8.07205C26.555 8.07205 27.4337 8.12163 28.3051 8.06056C29.6492 7.96637 30.5616 6.85488 30.5177 5.46166C30.4776 4.19074 29.4557 3.18558 28.1509 3.15458C27.435 3.13757 26.7179 3.1669 26.0022 3.14389C25.6613 3.13294 25.5814 3.27394 25.5865 3.59589C25.6016 4.54656 25.5916 5.49765 25.5915 6.44858C25.5914 6.97328 25.5914 7.49798 25.5914 8.07205Z" fill="#32394D"/>
<path d="M1.34065e-05 15.067C0.4626 14.514 0.868588 14.0245 1.2789 13.5389C2.84704 11.683 4.40936 9.82169 5.9926 7.97959C6.25917 7.66945 6.27553 7.48539 6.0002 7.16391C4.10016 4.94541 2.22172 2.70718 0.336835 0.474852C0.241853 0.362365 0.151407 0.245785 0 0.0581957C0.138703 0.0328778 0.278616 0.0152143 0.419141 0.00528274C1.85342 0.00221019 3.28787 -0.00786962 4.72178 0.0159578C4.94533 0.0305077 5.15548 0.131006 5.3108 0.297637C7.29518 2.62064 9.26035 4.96113 11.2398 7.28868C11.4288 7.51092 11.408 7.64555 11.2293 7.85585C9.25103 10.1845 7.2839 12.5232 5.30385 14.8503C5.1922 14.9815 4.99483 15.1096 4.83586 15.1116C3.31401 15.1307 1.79183 15.1226 0.269749 15.1202C0.178795 15.1087 0.088685 15.0909 1.34065e-05 15.067Z" fill="#32394D"/>
<path d="M8.10213 0.0031257C8.28619 0.0031257 8.47025 0.0031257 8.65431 0.0031257C10.0004 0.00316561 11.3467 -0.00968785 12.6924 0.0164474C12.9296 0.0289719 13.1538 0.132547 13.3209 0.306864C15.2957 2.61733 17.2492 4.94726 19.2178 7.26339C19.409 7.48832 19.4285 7.62595 19.2277 7.86193C17.2481 10.1882 15.2829 12.5276 13.3036 14.8541C13.1838 14.9976 13.0163 15.0895 12.8341 15.1119C11.3127 15.1304 9.79093 15.1222 8.26927 15.1195C8.18851 15.1087 8.10869 15.0913 8.03053 15.0677C8.19062 14.8609 8.31563 14.6867 8.45316 14.5237C10.3082 12.3257 12.1593 10.1242 14.028 7.93871C14.2767 7.64791 14.2702 7.4798 14.025 7.1928C12.1667 5.01798 10.3257 2.82731 8.4797 0.641295C8.33753 0.472946 8.19786 0.302351 8.05703 0.132802L8.10213 0.0031257Z" fill="#32394D"/>
<path d="M41.8195 5.14081C41.8341 5.02731 41.8462 4.96977 41.8483 4.91185C41.8815 3.99071 41.8812 3.99064 42.7604 3.99071C43.1262 3.99074 43.4926 4.00492 43.8576 3.98668C44.1324 3.97293 44.2119 4.09622 44.2116 4.35921C44.2077 7.63728 44.2086 10.9153 44.2143 14.1934C44.2151 14.5194 44.0847 14.6064 43.7934 14.5967C43.2818 14.5796 42.7684 14.5717 42.2577 14.5991C41.915 14.6176 41.8159 14.4782 41.8471 14.152C41.867 13.9436 41.8508 13.7315 41.8508 13.4182C40.6433 14.4513 39.3367 14.9125 37.8368 14.6587C36.3533 14.4077 35.193 13.6378 34.3862 12.3309C33.0183 10.1149 33.3672 7.08432 35.1465 5.28629C36.6099 3.80744 39.4965 3.09285 41.8195 5.14081ZM41.694 9.30677C41.6969 7.56012 40.4357 6.21789 38.7932 6.21969C37.1718 6.22147 35.9189 7.55033 35.9074 9.28042C35.8959 11.0061 37.1442 12.3493 38.7681 12.3587C40.4359 12.3682 41.691 11.0591 41.694 9.30677Z" fill="#32394D"/>
<path d="M94.5508 13.359C94.5508 13.9553 94.5509 14.4344 94.5508 14.9134C94.5506 15.8807 94.5415 16.848 94.5549 17.8151C94.5596 18.1487 94.4412 18.2771 94.1187 18.2645C93.6802 18.2473 93.2395 18.2418 92.8018 18.2687C92.4205 18.2921 92.2886 18.1513 92.2923 17.7519C92.3081 16.0292 92.298 14.3062 92.298 12.5832C92.2981 11.4497 92.2652 10.3149 92.3071 9.18304C92.3884 6.98603 93.3564 5.31365 95.3033 4.38907C97.1673 3.50385 99.0225 3.67145 100.632 5.01986C102.387 6.48945 102.894 8.48056 102.354 10.6972C101.833 12.838 100.467 14.1759 98.3388 14.5772C97.0655 14.8172 95.895 14.5239 94.8968 13.6294C94.8218 13.5622 94.7384 13.5049 94.5508 13.359ZM94.5383 9.24878C94.5352 11.1063 95.6458 12.3524 97.3082 12.3566C98.9965 12.3609 100.269 11.0475 100.281 9.28893C100.293 7.49578 99.0363 6.16651 97.3256 6.16229C95.6577 6.15818 94.5414 7.39435 94.5383 9.24878Z" fill="#32394D"/>
<path d="M79.12 12.8691C79.0672 12.9603 79.0534 13.0085 79.0223 13.0342C77.1687 14.5601 74.5328 15.1538 72.3386 14.1152C70.0259 13.0205 68.9216 10.3155 69.6673 7.60817C70.3477 5.13813 72.6192 3.58732 75.1178 3.88685C77.7798 4.20595 79.5195 6.19677 79.4423 8.8385C79.4375 9.00424 79.408 9.16912 79.4011 9.33488C79.3826 9.77829 79.1927 9.94709 78.7362 9.94186C76.6139 9.91756 74.4913 9.93032 72.3688 9.9322C71.776 9.93273 71.7221 10.0024 71.8859 10.5824C72.1807 11.6259 72.9093 12.1793 73.8971 12.3796C75.1677 12.6372 76.3784 12.3774 77.5089 11.7644C77.8572 11.5756 78.049 11.6273 78.2771 11.9192C78.533 12.2467 78.8271 12.5424 79.12 12.8691ZM77.1381 8.04758C76.9015 6.76332 75.7511 5.93727 74.405 6.02994C73.1602 6.11564 72.0606 7.02353 72.0178 8.04758H77.1381Z" fill="#32394D"/>
<path d="M90.4372 12.9218C89.4589 13.7335 88.4229 14.2772 87.2544 14.4967C85.1943 14.8836 83.3369 14.4815 81.909 12.7838C80.3653 10.9486 80.3225 7.83541 81.7691 5.86952C83.167 3.96982 85.8962 3.30678 88.0773 4.33696C89.9265 5.21035 91.0187 7.36799 90.6685 9.42068C90.6033 9.80285 90.4446 9.94203 90.0595 9.93902C87.9087 9.92222 85.7577 9.93019 83.6067 9.9323C83.0364 9.93286 82.99 9.99164 83.149 10.5606C83.4452 11.6204 84.1783 12.1871 85.1872 12.3839C86.4583 12.6318 87.6672 12.371 88.7959 11.7547C89.1287 11.573 89.3098 11.622 89.5295 11.9003C89.796 12.238 90.0991 12.5449 90.4372 12.9218ZM88.3921 8.06345C88.2279 6.79474 87.0031 5.91885 85.6394 6.03198C84.385 6.13604 83.2592 7.09631 83.2973 8.06345H88.3921Z" fill="#32394D"/>
<path d="M113.634 12.914C112.83 13.6257 111.877 14.1345 110.85 14.4001C108.806 14.9157 106.906 14.6475 105.354 13.0584C103.577 11.2378 103.434 7.93866 104.99 5.84191C106.469 3.84918 109.44 3.25493 111.619 4.51611C113.255 5.46324 114.178 7.48296 113.869 9.4062C113.809 9.77741 113.67 9.94218 113.272 9.9387C111.136 9.92002 109 9.92957 106.864 9.93084C106.223 9.93122 106.174 9.99611 106.371 10.6357C106.684 11.6492 107.405 12.1885 108.377 12.3807C109.664 12.6354 110.882 12.3586 112.027 11.7416C112.314 11.5873 112.487 11.6004 112.692 11.8575C112.978 12.2144 113.299 12.5415 113.634 12.914ZM106.451 8.02988H111.607C111.362 6.79842 110.31 6.00176 109.029 6.02278C107.745 6.04386 106.655 6.87411 106.451 8.02988Z" fill="#32394D"/>
<path d="M69.6226 0.714289C69.3561 1.04985 69.0914 1.38684 68.823 1.72073C67.3653 3.53416 65.9137 5.35289 64.4414 7.15362C64.2048 7.44302 64.1964 7.617 64.4353 7.91019C66.0833 9.9334 67.7125 11.9729 69.347 14.0079C69.4373 14.1204 69.52 14.2395 69.6811 14.4563C69.0347 14.4563 68.4797 14.393 67.9435 14.4699C66.9338 14.6146 66.2897 14.2194 65.683 13.3726C64.3439 11.5038 62.8943 9.71875 61.4718 7.91469C61.2382 7.6184 61.2535 7.43831 61.4806 7.14924C63.0934 5.09606 64.6942 3.03283 66.2829 0.959554C66.3654 0.837229 66.4772 0.739123 66.6074 0.674852C66.7377 0.610582 66.8819 0.582353 67.0258 0.592929C67.8711 0.613671 68.7171 0.599886 69.5628 0.599886C69.5828 0.638019 69.6027 0.676153 69.6226 0.714289Z" fill="#32394D"/>
<path d="M117.87 5.34395C118.085 5.17112 118.187 5.09314 118.284 5.0092C119.243 4.18365 120.365 3.88475 121.589 3.90048C121.862 3.90398 121.989 4.00685 121.981 4.30331C121.968 4.81638 121.969 5.33029 121.98 5.84344C121.987 6.12318 121.863 6.22161 121.611 6.21061C121.436 6.20299 121.26 6.21067 121.084 6.2125C119.169 6.2325 118.008 7.35055 117.937 9.33599C117.883 10.8593 117.917 12.3859 117.911 13.911C117.908 14.5129 117.905 14.5163 117.323 14.5183C116.87 14.5199 116.417 14.5117 115.963 14.5192C115.685 14.5238 115.572 14.401 115.572 14.1116C115.577 10.88 115.577 7.64833 115.573 4.41666C115.573 4.12645 115.682 4.01038 115.963 4.01726C116.46 4.02943 116.958 4.03091 117.455 4.01649C117.753 4.00783 117.887 4.12443 117.873 4.43766C117.861 4.70076 117.87 4.96494 117.87 5.34395Z" fill="#32394D"/>
<path d="M60.8392 7.54548C60.8395 9.65923 60.831 11.773 60.847 13.8867C60.8501 14.291 60.7464 14.4645 60.3324 14.4363C59.8798 14.4063 59.4259 14.4062 58.9733 14.436C58.5652 14.4624 58.451 14.3001 58.4527 13.8891C58.4662 10.6581 58.4599 7.42706 58.4597 4.19605C58.4597 3.15427 58.4703 2.11232 58.454 1.07081C58.4485 0.721559 58.5553 0.579543 58.904 0.594878C59.4003 0.616702 59.8989 0.617158 60.3951 0.594814C60.7432 0.579141 60.8465 0.719429 60.8447 1.06838C60.8332 3.22736 60.8389 5.38643 60.8392 7.54548Z" fill="#32394D"/>
<path d="M96.8641 27.3871C96.8641 27.7742 96.8647 28.0902 96.864 28.4063C96.8625 29.0502 96.8579 29.0538 96.1338 28.9493V27.4368C95.7825 27.5133 95.4645 27.6245 95.1411 27.6448C94.3744 27.693 93.808 27.3257 93.4794 26.6194C93.2534 26.1586 93.1333 25.6501 93.1285 25.1335C93.1237 24.617 93.2342 24.1062 93.4516 23.641C93.8928 22.6556 94.8908 22.2932 95.8502 22.7292C95.9266 22.7638 96.0053 22.7928 96.1346 22.8454C96.1346 22.3027 96.1447 21.8077 96.1306 21.3135C96.1227 21.0366 96.2276 20.9426 96.4904 20.9446C96.7405 20.9465 96.8739 21.011 96.8663 21.3001C96.8533 21.7959 96.8627 22.2923 96.8627 22.8334C97.0854 22.747 97.2556 22.6657 97.4339 22.6142C98.3065 22.3625 99.1809 22.7839 99.5679 23.6818C99.7696 24.1299 99.8737 24.6182 99.873 25.1123C99.8723 25.6065 99.7668 26.0945 99.5639 26.542C99.1274 27.5426 98.1243 27.9203 97.1338 27.4971C97.0683 27.4692 97.0021 27.4433 96.8641 27.3871ZM96.1338 25.11C96.1338 24.8076 96.1041 24.5015 96.1404 24.2039C96.2008 23.7092 95.9466 23.487 95.5444 23.3512C94.9069 23.1359 94.3178 23.4038 94.082 24.0526C93.8589 24.6832 93.835 25.3706 94.0138 26.016C94.228 26.8489 95.0562 27.1875 95.7891 26.7649C96.0233 26.6299 96.1629 26.4589 96.1397 26.1524C96.1136 25.8069 96.1338 25.4576 96.1338 25.11ZM96.8642 25.1154C96.8642 25.4617 96.8831 25.8095 96.8586 26.154C96.8369 26.4582 96.9741 26.6299 97.2088 26.7656C97.9663 27.2033 98.8533 26.8271 99.0005 25.9392C99.0871 25.4171 99.032 24.8664 99.0072 24.3302C98.9994 24.161 98.9012 23.9862 98.8135 23.8327C98.5475 23.3671 98.0465 23.1775 97.5267 23.3272C96.9672 23.4883 96.8646 23.6462 96.8642 24.3473C96.8641 24.6033 96.8641 24.8593 96.8642 25.1154Z" fill="#32394D"/>
<path d="M54.6973 22.7172C54.0524 23.4419 53.4549 24.1133 52.8317 24.8137L54.7688 27.4959C54.2463 27.6134 53.8814 27.5939 53.5896 27.1117C53.2283 26.5148 52.786 25.9703 52.3794 25.404C51.6721 25.9318 51.2705 26.5633 51.4881 27.4491C50.835 27.673 50.6755 27.5992 50.7502 26.9898C50.8458 26.2099 50.2917 25.878 49.872 25.3595C49.4585 25.9363 49.0289 26.467 48.6769 27.0478C48.388 27.5245 48.0332 27.6558 47.4626 27.4869C48.1065 26.5908 48.735 25.7162 49.3833 24.8139C48.769 24.1208 48.172 23.4471 47.5329 22.7261C48.0417 22.6058 48.4075 22.5952 48.7355 23.0128C49.2508 23.6689 49.8203 24.2797 50.3692 24.9074C50.4533 25.0036 50.5503 25.0876 50.7352 25.2697C50.7352 24.4537 50.7436 23.7529 50.7311 23.0525C50.726 22.7648 50.8191 22.6435 51.1092 22.6488C51.3656 22.6534 51.477 22.7328 51.4716 23.015C51.458 23.7375 51.4671 24.4604 51.4671 25.2893C51.62 25.143 51.7133 25.0665 51.7919 24.9764C52.3601 24.3259 52.9472 23.6911 53.4835 23.0136C53.8109 22.6 54.1796 22.6095 54.6973 22.7172Z" fill="#32394D"/>
<path d="M107.188 26.9517V28.9774H106.527V22.7219C107.142 22.5748 107.148 22.5791 107.254 23.2797C107.898 22.6796 108.615 22.3923 109.461 22.624C109.975 22.7658 110.423 23.0921 110.724 23.5444C111.071 24.0553 111.237 24.6735 111.195 25.2956C111.153 25.9177 110.905 26.5061 110.494 26.9625C109.657 27.8589 108.529 27.8796 107.188 26.9517ZM110.447 25.1124C110.442 24.0769 109.734 23.2726 108.833 23.2795C107.917 23.2865 107.164 24.1314 107.175 25.1399C107.186 26.1425 107.918 26.9297 108.843 26.9347C109.781 26.9398 110.452 26.1776 110.447 25.1124Z" fill="#32394D"/>
<path d="M116.889 27.4953C116.229 27.6319 116.201 27.611 116.2 26.9495C116.198 26.0605 116.198 25.1715 116.2 24.2825C116.163 24.2648 116.127 24.247 116.091 24.2293C115.599 24.9215 115.106 25.6136 114.565 26.3753C114.034 25.6154 113.537 24.9044 113.04 24.1934L112.949 24.2214C112.949 25.1352 112.949 26.049 112.949 26.9629C112.948 27.6057 112.927 27.6222 112.264 27.4919C112.254 27.3699 112.233 27.2379 112.232 27.106C112.23 25.7756 112.225 24.4452 112.239 23.115C112.24 22.9649 112.358 22.6866 112.41 22.6895C112.606 22.7003 112.873 22.7431 112.977 22.8822C113.521 23.6106 114.024 24.3721 114.586 25.1865C114.989 24.5994 115.365 24.05 115.743 23.5016C115.904 23.2676 116.04 23.005 116.241 22.8146C116.357 22.7041 116.579 22.6812 116.752 22.6815C116.814 22.6816 116.927 22.8682 116.928 22.9701C116.936 24.4363 116.929 25.9025 116.924 27.3688C116.918 27.4124 116.906 27.4551 116.889 27.4953Z" fill="#32394D"/>
<path d="M43.5239 25.4469C43.6099 26.1046 43.8883 26.5475 44.4048 26.7837C45.2568 27.1732 45.9661 26.8492 46.6055 26.1922C46.7731 26.3472 46.9203 26.4834 47.064 26.6162C46.3339 27.7388 44.7468 28.0072 43.7024 27.2116C42.9025 26.6023 42.5479 25.4502 42.8254 24.3627C43.0776 23.3745 43.8115 22.666 44.7522 22.5646C46.4005 22.3868 47.2468 23.884 47.1577 25.2051C47.1517 25.294 46.917 25.4329 46.7862 25.4358C45.8797 25.4562 44.9725 25.4468 44.0655 25.4469C43.9064 25.4469 43.7473 25.4469 43.5239 25.4469ZM46.3589 24.7214C46.2595 23.7619 45.6941 23.225 44.8708 23.2739C44.5196 23.3056 44.1925 23.4716 43.9538 23.7394C43.715 24.0072 43.5817 24.3574 43.5802 24.7214H46.3589Z" fill="#32394D"/>
<path d="M37.4622 27.534H36.854C36.8249 27.4093 36.7987 27.2971 36.7659 27.1568C36.7085 27.1736 36.653 27.1966 36.6002 27.2255C35.9534 27.6951 35.2429 27.7634 34.505 27.5468C33.7944 27.3383 33.397 26.805 33.3811 26.1049C33.3648 25.3901 33.7026 24.805 34.4266 24.619C35.0214 24.4662 35.6627 24.5017 36.284 24.4668C36.4277 24.4722 36.5706 24.4918 36.7107 24.5253C36.8905 23.3604 35.7839 23.0189 34.0181 23.6965C33.933 23.5041 33.8461 23.3079 33.7433 23.0757C34.655 22.5847 35.5597 22.4021 36.5087 22.7915C37.0336 23.0068 37.4171 23.4406 37.4452 24.0128C37.502 25.1699 37.4622 26.332 37.4622 27.534ZM36.7752 25.3279C36.0741 25.0743 35.2195 25.0399 34.7162 25.2451C34.0781 25.5053 33.925 26.2774 34.4288 26.6944C34.8244 27.0219 35.6319 27.0258 36.1844 26.703C36.6833 26.4115 36.8687 25.9798 36.7752 25.3279Z" fill="#32394D"/>
<path d="M87.88 27.5466C87.5609 27.4971 87.167 27.7623 87.1615 27.0923C86.5856 27.5932 85.9552 27.7067 85.2833 27.6367C84.1572 27.5194 83.4651 26.4873 83.8717 25.4881C84.1831 24.7228 84.8476 24.483 85.5791 24.4286C86.0847 24.391 86.5951 24.4214 87.1204 24.4214C87.2349 23.8829 86.8583 23.375 86.1138 23.3503C85.5492 23.3315 84.9789 23.5005 84.377 23.5911C84.0714 23.0734 84.0813 23.0353 84.6789 22.8146C85.3128 22.5804 85.9598 22.5037 86.6186 22.6853C87.3265 22.8805 87.8129 23.3665 87.8608 24.1029C87.934 25.2268 87.88 26.3595 87.88 27.5466ZM85.9393 25.104L85.9225 25.0462C85.5906 25.1427 85.2346 25.1896 84.9323 25.3469C84.4464 25.5997 84.4008 26.331 84.8102 26.6842C85.4413 27.2286 86.8061 26.8855 87.1145 26.1048C87.3523 25.5028 87.2067 25.2431 86.5913 25.1737C86.3741 25.1493 86.1567 25.1272 85.9393 25.104Z" fill="#32394D"/>
<path d="M64.6121 27.5341C64.2855 27.4983 63.8832 27.7862 63.8786 27.2738C63.3627 27.4009 62.8525 27.6124 62.3343 27.6364C61.2356 27.6871 60.5028 27.029 60.4845 26.0894C60.4665 25.171 61.1967 24.4791 62.271 24.4269C62.7915 24.4017 63.3142 24.4226 63.8449 24.4226C63.9776 23.3617 62.9526 23.0537 61.1594 23.6765C60.7775 23.1206 60.8021 23.0307 61.4122 22.8081C62.0325 22.5818 62.6666 22.5064 63.3106 22.678C64.0497 22.8751 64.5673 23.4348 64.6004 24.2105C64.6468 25.2946 64.6121 26.3823 64.6121 27.5341ZM62.3476 27.0276C63.3243 26.942 63.9779 26.3414 63.8944 25.538C63.8839 25.4367 63.7719 25.2673 63.7015 25.2643C63.0845 25.2378 62.4498 25.1494 61.853 25.2627C61.2406 25.379 61.0286 26.2085 61.4678 26.6025C61.7029 26.8134 62.0507 26.8903 62.3476 27.0276Z" fill="#32394D"/>
<path d="M121.98 27.5286C121.661 27.5401 121.308 27.7126 121.253 27.1438C120.55 27.6617 119.807 27.7843 119.02 27.5472C118.323 27.3373 117.931 26.8255 117.911 26.1481C117.887 25.3813 118.203 24.8112 118.946 24.6186C119.54 24.4648 120.181 24.5019 120.801 24.4656C120.942 24.4692 121.082 24.4855 121.22 24.5142C121.309 23.9004 121.006 23.4877 120.423 23.3592C119.76 23.2131 119.157 23.4212 118.574 23.694C118.181 23.1181 118.199 23.045 118.777 22.8243C119.424 22.5778 120.084 22.5032 120.757 22.6895C121.429 22.8756 121.913 23.3357 121.96 24.0326C122.036 25.1844 121.98 26.3457 121.98 27.5286ZM120.064 25.1049L120.053 25.0612C119.742 25.1372 119.414 25.1709 119.125 25.2985C118.631 25.5169 118.486 26.2069 118.847 26.591C119.251 27.0206 119.771 27.0027 120.285 26.869C120.78 26.7403 121.175 26.473 121.284 25.9086C121.389 25.367 121.3 25.2458 120.763 25.1789C120.53 25.1499 120.297 25.1293 120.064 25.1049Z" fill="#32394D"/>
<path d="M66.7334 25.7484C66.4382 25.506 66.1482 25.3373 65.9479 25.0908C65.234 24.2124 65.7346 22.8973 66.89 22.7293C67.6798 22.6144 68.4938 22.6679 69.2968 22.6726C69.3812 22.6731 69.5367 22.8516 69.5377 22.9489C69.5531 24.4558 69.5484 25.9629 69.5484 27.4568C68.8986 27.6641 68.8178 27.6065 68.8152 26.976C68.8139 26.659 68.8125 26.342 68.8089 26.025C68.8051 25.9808 68.7979 25.937 68.7872 25.8939C68.0639 25.6353 67.5978 25.7656 67.1622 26.3462C66.9832 26.5848 66.7783 26.8079 66.6314 27.0661C66.3578 27.5474 65.9724 27.651 65.4136 27.488C65.8659 26.892 66.3012 26.3181 66.7334 25.7484ZM68.813 23.3808C68.2292 23.3808 67.7032 23.3447 67.1841 23.3911C66.6803 23.4361 66.399 23.7707 66.3958 24.2043C66.3925 24.6521 66.6956 24.9999 67.2036 25.0525C67.6404 25.0936 68.0796 25.1013 68.5175 25.0753C68.6201 25.0701 68.7924 24.9016 68.7996 24.7983C68.8308 24.3489 68.813 23.8958 68.813 23.3808Z" fill="#32394D"/>
<path d="M103.026 27.6546C101.645 27.6616 100.604 26.5771 100.601 25.1282C100.598 23.6849 101.684 22.5355 103.043 22.5435C104.381 22.5514 105.465 23.7028 105.463 25.1142C105.467 25.4467 105.406 25.7766 105.285 26.0848C105.164 26.393 104.985 26.6733 104.758 26.9096C104.532 27.1458 104.262 27.3333 103.965 27.4612C103.667 27.5891 103.348 27.6548 103.026 27.6546ZM104.683 25.1289C104.692 24.105 103.955 23.2805 103.027 23.2759C102.113 23.2713 101.373 24.0648 101.356 25.0686C101.338 26.109 102.045 26.92 102.99 26.9427C103.92 26.965 104.675 26.1563 104.683 25.1289Z" fill="#32394D"/>
<path d="M56.1555 27.5271H55.4565V22.7361C56.085 22.5533 56.153 22.6045 56.1554 23.2509C56.1569 23.6285 56.1412 24.0075 56.1691 24.383C56.1771 24.4913 56.3072 24.6772 56.3852 24.6794C57.1703 24.7015 57.9561 24.6929 58.798 24.6929C58.798 24.132 58.8035 23.6228 58.7958 23.1139C58.7917 22.8481 58.8031 22.646 59.1549 22.6465C59.4822 22.647 59.5389 22.7998 59.5368 23.0902C59.5273 24.4496 59.533 25.8092 59.5311 27.1687C59.531 27.2718 59.5149 27.3747 59.5068 27.4697C58.8635 27.6552 58.7993 27.6081 58.798 26.9668C58.797 26.4847 58.7978 26.0025 58.7978 25.4247H57.3477C56.1557 25.4247 56.1557 25.4246 56.1555 26.6563C56.1555 26.9387 56.1555 27.2211 56.1555 27.5271Z" fill="#32394D"/>
<path d="M23.8521 27.5272H23.0902C23.0902 27.2216 23.0902 26.9396 23.0902 26.6576C23.0905 25.48 23.0997 24.3023 23.0854 23.1248C23.0813 22.7875 23.1614 22.6383 23.5218 22.6453C24.5743 22.6658 25.6275 22.6432 26.68 22.6641C26.8206 22.6669 27.0781 22.8212 27.0796 22.9089C27.1043 24.4303 27.0974 25.9523 27.0974 27.5126H26.3767V23.3904H23.8521L23.8521 27.5272Z" fill="#32394D"/>
<path d="M77.4326 27.5279H76.7546V23.3915H74.2259V27.469C73.5316 27.6433 73.4856 27.6089 73.4851 26.9591C73.4842 25.6898 73.4948 24.4205 73.4786 23.1515C73.4741 22.7941 73.556 22.6366 73.938 22.6448C74.9912 22.6674 76.0452 22.6552 77.0988 22.6513C77.328 22.6505 77.4915 22.6773 77.4891 22.9865C77.4777 24.4369 77.4818 25.8875 77.4778 27.3379C77.4694 27.4028 77.4543 27.4665 77.4326 27.5279Z" fill="#32394D"/>
<path d="M78.159 26.8901C79.0813 26.8742 79.2066 26.8072 79.3183 25.8568C79.4254 24.9451 79.4396 24.0203 79.4648 23.1004C79.4736 22.7757 79.5557 22.6398 79.8896 22.647C80.7381 22.6652 81.5874 22.6429 82.4357 22.665C82.5629 22.6684 82.7941 22.8218 82.7954 22.9086C82.8176 24.4312 82.8114 25.9543 82.8114 27.4649C82.1441 27.6536 82.0826 27.6088 82.0821 26.9658C82.0811 25.7894 82.0818 24.613 82.0818 23.4009H80.223C80.1786 24.1479 80.1593 24.8849 80.0821 25.6153C80.038 26.0499 79.9411 26.477 79.7937 26.8866C79.5609 27.5206 78.8932 27.8054 78.272 27.577C77.8241 27.4123 78.1408 27.1291 78.159 26.8901Z" fill="#32394D"/>
<path d="M32.3773 22.6925V27.4911C31.695 27.6249 31.6782 27.6122 31.6773 26.9424C31.6761 25.9307 31.678 24.9191 31.6757 23.9074C31.6753 23.7453 31.66 23.5832 31.6502 23.394H29.8402C29.808 23.9846 29.8014 24.5699 29.7373 25.1484C29.6911 25.6878 29.5955 26.2215 29.4518 26.7423C29.1925 27.5935 28.4612 27.8645 27.6628 27.4644C27.6591 27.0914 27.6718 26.7731 28.202 26.8848C28.5853 26.9656 28.7722 26.6546 28.8201 26.3263C28.9329 25.5527 29.0171 24.7736 29.0822 23.9939C29.1171 23.5762 29.0884 23.1528 29.0884 22.6925H32.3773Z" fill="#32394D"/>
<path d="M90.2742 23.3643C89.7773 23.3643 89.357 23.3575 88.9371 23.3671C88.7116 23.3722 88.5807 23.3196 88.5823 23.0455C88.5838 22.7927 88.6357 22.6492 88.9184 22.6513C90.0578 22.6598 91.1973 22.6582 92.3367 22.653C92.5861 22.6519 92.6636 22.7677 92.6622 23.0122C92.6609 23.2523 92.5984 23.3764 92.3394 23.3676C91.917 23.3533 91.4939 23.3638 91.0075 23.3638V27.5133H90.2742L90.2742 23.3643Z" fill="#32394D"/>
<path d="M38.2511 22.6873H42.2152V23.3649C41.8263 23.3649 41.4366 23.3895 41.0512 23.3579C40.6744 23.327 40.576 23.484 40.582 23.8488C40.5994 24.8906 40.5877 25.9329 40.5874 26.975C40.5873 27.1521 40.5874 27.3293 40.5874 27.5282H39.8873V23.3625H38.2511V22.6873Z" fill="#32394D"/>
<path d="M45.1788 22.0915C45.2388 21.7887 45.2387 21.4469 45.3881 21.2024C45.448 21.1045 45.9765 21.1369 46.045 21.2584C46.1653 21.4716 46.2041 21.8906 46.0754 22.0533C45.944 22.2194 45.5699 22.1808 45.302 22.2318C45.261 22.185 45.2199 22.1382 45.1788 22.0915Z" fill="#32394D"/>
<path d="M43.7999 21.6762C43.7257 21.2861 43.8759 21.1603 44.2645 21.1509C44.7084 21.14 44.6995 21.3815 44.7111 21.7099C44.7237 22.0674 44.632 22.2067 44.2554 22.2098C43.8509 22.2131 43.7333 22.0526 43.7999 21.6762Z" fill="#32394D"/>
</svg>
