<svg width="30" height="30" viewBox="0 0 30 30" fill="none" xmlns="http://www.w3.org/2000/svg">
<path d="M3.53333 3.33333H26.45L24.8833 1.66667H4.88333L3.53333 3.33333ZM29.2333 3.71667C29.7167 4.28333 30 5 30 5.83333V26.6667C30 27.5507 29.6488 28.3986 29.0237 29.0237C28.3986 29.6488 27.5507 30 26.6667 30H3.33333C2.44928 30 1.60143 29.6488 0.976311 29.0237C0.351189 28.3986 0 27.5507 0 26.6667V5.83333C0 5 0.283333 4.28333 0.766667 3.71667L3.06667 0.916667C3.53333 0.35 4.21667 0 5 0H25C25.7833 0 26.4667 0.35 26.9167 0.916667L29.2333 3.71667ZM5 25H15V20H5V25Z" fill="white"/>
</svg>
